<svg width="54" height="18" viewBox="0 0 54 18" fill="none" xmlns="http://www.w3.org/2000/svg">
<g clip-path="url(#clip0_1_99)">
<path d="M25.5135 12.7745L25.5142 12.7753C26.2208 13.6113 27.3776 13.7395 28.3629 13.7395C29.914 13.7395 31.1079 13.44 31.9263 12.8228C32.7601 12.2019 33.1717 11.2967 33.1717 10.126C33.1717 9.55531 33.1314 9.0085 33.0505 8.48563C32.987 8.00751 32.8589 7.32989 32.6669 6.45456C32.6166 6.22441 32.3701 6.09107 32.1437 6.16979L31.034 6.56253C30.8388 6.63039 30.7296 6.83261 30.7808 7.02808C30.9868 7.80939 31.1342 8.42817 31.2243 8.88532C31.3088 9.30722 31.402 10.0616 31.3547 10.4945C31.3096 10.9094 30.9563 11.2585 30.5648 11.4278C30.1208 11.6147 29.5232 11.7486 28.9157 11.7915C28.3086 11.8344 27.7039 11.7855 27.2412 11.6167C26.656 11.3658 26.6561 10.4231 26.6562 9.89301V9.87835L26.6547 3.07011C26.6542 2.8383 26.448 2.65808 26.212 2.68326L24.9915 2.81347C24.7873 2.83526 24.6334 3.00472 24.6356 3.20528L24.708 9.8781C24.7178 11.1578 24.9794 12.1303 25.5135 12.7745Z" fill="#0381FE"/>
<path fill-rule="evenodd" clip-rule="evenodd" d="M18.5649 11.7948C18.4641 10.3418 18.126 8.81794 17.5136 7.99439C16.8813 7.14408 16.011 6.71726 14.915 6.71726C13.8485 6.71726 13.0348 7.13522 12.492 7.97116C11.9577 8.79421 11.6945 9.82212 11.6945 11.0477C11.6945 11.9248 11.9242 12.6038 12.4044 13.0624C12.8852 13.5213 13.6156 13.7394 14.5704 13.7394H16.3868C16.1435 14.2749 15.7998 14.8017 15.1744 15.0941L15.1738 15.0944C14.2346 15.5399 13.0567 15.6545 11.9941 15.6716C11.7717 15.6753 11.5912 15.8541 11.5969 16.0737L11.6278 17.1615C11.6331 17.3652 11.7988 17.5329 12.0102 17.539C13.5859 17.5845 15.2789 17.3757 16.6423 16.5158C17.6092 15.9157 18.2133 14.9855 18.4602 13.7393C19.6845 13.7373 21.0387 13.6853 21.9633 12.6824C22.63 11.9698 22.933 10.941 22.933 9.62839V3.07091C22.933 2.83879 22.7266 2.65805 22.4903 2.68326L21.2705 2.8134C21.0663 2.83519 20.9123 3.00473 20.9146 3.20532L20.9867 9.62966V9.86242C20.9965 10.5316 20.8308 11.1267 20.547 11.3866C20.0302 11.8744 19.2246 11.8014 18.5649 11.7948ZM13.8248 11.6351C13.9959 11.7354 14.2883 11.7942 14.7225 11.7942H16.5847C16.4993 10.9393 16.3255 9.92818 16.0474 9.50869C15.7606 9.07613 15.3763 8.86677 14.885 8.86677C14.4722 8.86677 14.0949 9.02132 13.8966 9.38987L13.8961 9.39088C13.7752 9.61006 13.6103 10.1585 13.5636 10.5446C13.5156 10.9415 13.5843 11.4943 13.8248 11.6351Z" fill="#0381FE"/>
<path d="M7.7244 17.1411C6.87847 17.4596 5.87942 17.617 4.73023 17.617H4.72936C3.34223 17.6071 2.2606 17.2658 1.50256 16.5762C0.755236 15.8971 0.385803 14.9813 0.385803 13.8425C0.385803 13.1685 0.482172 12.4566 0.674096 11.7074C0.848303 11.0176 1.1016 10.2439 1.43302 9.38656C1.51068 9.18564 1.74017 9.08599 1.94483 9.16092L2.87128 9.50022C3.07259 9.57396 3.17676 9.78957 3.1114 9.98779C2.51552 11.5735 2.16489 12.9919 2.20176 13.8053L2.20179 13.8061C2.22045 14.2971 2.53652 14.9717 2.94884 15.2829C3.36926 15.593 3.99348 15.7566 4.83918 15.7566C5.90516 15.7566 7.22559 15.5317 8.05719 14.8861L8.0585 14.8851L8.05984 14.8841C8.50687 14.5566 8.67477 13.7907 8.66243 13.239C8.64995 12.6824 8.5835 12.0787 8.48586 11.5735L8.48566 11.5722C8.3414 10.7801 8.10419 9.83336 7.88654 9.07334C7.83195 8.88279 7.93061 8.68071 8.11933 8.60475L9.16785 8.1624C9.39132 8.07242 9.64548 8.19556 9.7057 8.42497C9.93826 9.31156 10.1269 10.12 10.2709 10.8501C10.4466 11.7399 10.5832 12.6942 10.4974 13.6173C10.4461 14.4373 10.1841 15.1518 9.70956 15.7566C9.24421 16.3624 8.57992 16.8228 7.7244 17.1411Z" fill="#0381FE"/>
<path d="M31.4277 16.2487C31.4277 16.8344 30.9414 17.3091 30.3418 17.3091C29.7422 17.3091 29.256 16.8344 29.256 16.2487C29.256 15.663 29.7422 15.1882 30.3418 15.1882C30.9414 15.1882 31.4277 15.663 31.4277 16.2487Z" fill="#263238"/>
<path d="M5.04978 8.12262C5.64949 8.12262 6.13563 7.64781 6.13563 7.06216C6.13563 6.47646 5.64949 6.00171 5.04978 6.00171C4.4501 6.00171 3.96396 6.47646 3.96396 7.06216C3.96396 7.64781 4.4501 8.12262 5.04978 8.12262Z" fill="#0381FE"/>
<path d="M53.2963 5.38057C52.6231 3.79741 51.4986 2.4543 50.0837 1.50495C48.6685 0.555587 46.9579 0 45.1247 0C43.9026 0 42.7319 0.245431 41.6726 0.693138C40.0811 1.362 38.7258 2.47857 37.7726 3.88372C36.8168 5.28885 36.2572 6.98802 36.2572 8.8085C36.2572 10.0222 36.5043 11.1846 36.9553 12.2365C37.6288 13.8169 38.753 15.1627 40.1682 16.1094C41.5288 17.0237 43.1611 17.5685 44.9154 17.6116C44.9859 17.6143 45.0567 17.617 45.13 17.617C45.1815 17.617 45.233 17.617 45.285 17.617C46.4498 17.5982 47.5662 17.3527 48.5818 16.9266C50.1735 16.2577 51.5283 15.1412 52.4844 13.736C53.4404 12.3308 54 10.6317 54 8.8112C54 7.59755 53.7527 6.43781 53.3019 5.38329L53.2963 5.38057ZM45.1272 15.6455C45.0947 15.6455 45.0648 15.6455 45.0321 15.6455C44.9996 15.6455 44.9669 15.6428 44.9344 15.6428C44.5136 15.6212 44.1144 15.5268 43.7448 15.3704C43.1093 15.1034 42.5663 14.6557 42.1832 14.0947C41.8002 13.531 41.5775 12.8568 41.5775 12.1258C41.5775 11.6377 41.6782 11.1765 41.8545 10.7558C42.1234 10.1247 42.5744 9.58528 43.1421 9.20498C43.7095 8.8247 44.3886 8.60352 45.1247 8.60352C45.6163 8.60352 46.0802 8.70331 46.5041 8.87861C47.1398 9.14563 47.6826 9.59335 48.0659 10.157C48.4486 10.7207 48.6716 11.3923 48.6716 12.1258C48.6716 12.6167 48.5712 13.0752 48.3941 13.4959C48.1257 14.127 47.6747 14.6692 47.107 15.0467C46.5746 15.4028 45.9498 15.6185 45.2657 15.6455C45.2198 15.6455 45.1734 15.6482 45.1247 15.6482L45.1272 15.6455ZM51.4687 11.4705C51.2407 12.0072 50.9447 12.5088 50.5916 12.9673C50.6349 12.6922 50.6567 12.409 50.6567 12.1232C50.6567 11.368 50.5017 10.6425 50.222 9.9871C49.8011 9 49.1003 8.1612 48.2206 7.57055C47.3381 6.97722 46.2704 6.63202 45.1272 6.63202C44.3667 6.63202 43.6359 6.78575 42.9734 7.06351C41.9795 7.47889 41.1376 8.1774 40.54 9.05124C39.9426 9.92509 39.5949 10.9877 39.5949 12.1232C39.5949 12.4064 39.6167 12.6895 39.6601 12.9646C39.5733 12.8568 39.4944 12.7462 39.4158 12.6302C38.6743 11.5379 38.2398 10.2272 38.2398 8.8085C38.2398 7.86184 38.4326 6.96645 38.7804 6.14922C39.3016 4.92477 40.1763 3.87832 41.2761 3.13934C42.376 2.40305 43.6958 1.97423 45.1247 1.97423C46.0777 1.97423 46.9794 2.16571 47.8023 2.51094C49.0351 3.02878 50.0891 3.8972 50.833 4.98949C51.5745 6.08183 52.0068 7.39257 52.0068 8.8112C52.0068 9.75786 51.8137 10.656 51.4662 11.4732L51.4687 11.4705Z" fill="#0381FE"/>
<path d="M42.0341 16.673C42.7537 17.1612 43.6037 17.4821 44.5192 17.5819C42.9085 17.4821 41.423 16.9508 40.1601 16.1094C38.7533 15.1573 37.6262 13.8115 36.9553 12.2364C36.7516 11.7563 36.5916 11.2681 36.4802 10.7557H38.5143C38.718 11.43 39.0221 12.0611 39.4133 12.6248C39.4894 12.7434 39.5655 12.8513 39.6603 12.9619C39.7283 13.4177 39.8559 13.8465 40.0244 14.2592C40.448 15.2436 41.1432 16.0851 42.0341 16.6757V16.673Z" fill="url(#paint0_linear_1_99)"/>
<path d="M50.6598 12.126C50.6598 12.4118 50.6349 12.6976 50.5913 12.9673C50.1321 13.558 49.5924 14.0705 48.9732 14.4831C47.9819 15.1493 46.8032 15.562 45.5214 15.6294C46.1051 15.562 46.64 15.3597 47.107 15.0495C47.675 14.6719 48.1257 14.1326 48.3974 13.5014C48.5768 13.0807 48.6772 12.6168 48.6772 12.1286C48.6772 11.6405 48.5768 11.1847 48.3974 10.7639H50.4752C50.6025 11.2008 50.6623 11.6567 50.6623 12.1286L50.6598 12.126Z" fill="url(#paint1_linear_1_99)"/>
</g>
<defs>
<linearGradient id="paint0_linear_1_99" x1="45.1286" y1="17.617" x2="45.1286" y2="-0.00697993" gradientUnits="userSpaceOnUse">
<stop stop-opacity="0.4"/>
<stop offset="0.322917" stop-opacity="0"/>
</linearGradient>
<linearGradient id="paint1_linear_1_99" x1="48.0905" y1="15.6267" x2="48.0905" y2="10.7612" gradientUnits="userSpaceOnUse">
<stop stop-opacity="0.4"/>
<stop offset="1" stop-opacity="0"/>
</linearGradient>
<clipPath id="clip0_1_99">
<rect width="54" height="18" fill="white"/>
</clipPath>
</defs>
</svg>
