<svg width="55" height="11" viewBox="0 0 55 11" fill="none" xmlns="http://www.w3.org/2000/svg">
<path fill-rule="evenodd" clip-rule="evenodd" d="M35.5194 0C37.3749 0 38.9027 1.36278 39.0583 3.09301L39.0714 3.38461V5.0769H42.6233C43.5272 5.0769 44.2756 4.43 44.3854 3.59658L44.3992 3.38461V0H46.1752V3.38461C46.1752 5.1526 44.7451 6.6084 42.9293 6.7567L42.6233 6.7692H33.7435V7.6153C33.7435 9.3834 32.3134 10.8392 30.4976 10.9875L30.1916 11H23.9757C22.1202 11 20.5925 9.6372 20.4369 7.9069L20.4238 7.6153V5.0769H22.1997V7.6153C22.1997 8.4767 22.8786 9.1898 23.7532 9.2944L23.9757 9.3076H30.1916C31.0955 9.3076 31.8439 8.6608 31.9537 7.8273L31.9675 7.6153V6.7692H30.1916V5.0769H37.2954V3.38461C37.2954 2.52326 36.6165 1.81013 35.7419 1.70552L35.5194 1.69231H31.9675V0H35.5194ZM19.5355 1.00136e-05V3.38462C19.5355 5.1526 18.1054 6.6084 16.2896 6.7567L15.9836 6.7692H14.2077V7.6153C14.2077 9.3834 12.7775 10.8392 10.9617 10.9875L10.6557 11H3.55187C1.69636 11 0.16873 9.6372 0.0130601 7.9069L0 7.6153V5.0769H1.77591V7.6153C1.77591 8.4767 2.45475 9.1898 3.32941 9.2944L3.55187 9.3076H10.6557C11.5597 9.3076 12.308 8.6608 12.4178 7.8273L12.4317 7.6153V6.7692H10.6557V5.0769H15.9836C16.8875 5.0769 17.6359 4.43001 17.7457 3.59659L17.7595 3.38462V1.00136e-05H19.5355ZM19.5355 7.6154V11H15.9836V9.3077H17.7595V7.6154H19.5355ZM39.071 8.4615V10.1538H37.295V8.4615H39.071ZM46.1749 8.4615V10.1538H42.6229V8.4615H46.1749ZM50.6144 0C52.5728 0 54.1663 1.5184 54.1663 3.38461C54.1663 5.1527 52.7361 6.6084 50.9204 6.7568L50.6144 6.7692H47.0625V5.0769H50.6144C51.5936 5.0769 52.3903 4.31769 52.3903 3.38461C52.3903 2.52326 51.7115 1.81013 50.8368 1.70552L50.6144 1.69231H47.0625V0H50.6144Z" fill="#0040FF"/>
</svg>
